<svg width="335" height="48" viewBox="0 0 335 48" fill="none" xmlns="http://www.w3.org/2000/svg">
<path d="M75.7204 41.2377C74.4056 38.2088 60.1577 1.27832 60.1577 1.27832H53.9326L55.784 5.64107L42.5289 40.6542C41.1605 43.7387 38.6919 45.6561 36.8405 45.6561L36.1965 46.2952H48.11L47.8149 45.6283C41.7508 45.7394 43.8169 39.8483 43.8169 39.8483L45.6146 35.0688C45.6146 35.0688 47.1709 34.0684 49.881 34.0684C52.5642 34.0684 55.5426 35.6801 58.4941 35.6801C61.231 35.6801 64.3435 35.2077 66.4364 33.0402C68.0464 37.1529 69.3611 40.4041 69.8173 41.5156C71.4004 45.3504 67.4829 45.6561 67.4829 45.6561L66.8657 46.323H80.7648L80.4428 45.6838C78.7524 45.6838 77.0351 44.2944 75.7204 41.2377ZM58.4673 35.041C55.5157 35.041 52.5373 33.4293 49.8541 33.4293C47.8685 33.4293 46.5001 33.985 45.9098 34.2629L56.2134 6.9749C56.2134 6.9749 62.1164 22.0917 66.1681 32.4289C64.0752 34.4018 61.1236 35.041 58.4673 35.041Z" fill="#E79683"/>
<path d="M106.524 1.97302C112.588 1.86187 110.522 7.75297 110.522 7.75297L98.0986 40.6264C98.0986 40.6264 86.1314 9.92045 84.5215 6.08568C82.9115 2.25091 86.8559 1.94524 86.8559 1.94524L87.473 1.27832H73.5203L73.8423 1.91745C75.5595 1.91745 77.2499 3.30686 78.5647 6.36356C79.8795 9.42026 94.1274 46.323 94.1274 46.323H100.379L98.5279 41.9602L111.783 6.94711C113.151 3.86262 115.62 1.94524 117.471 1.94524L118.115 1.30611H106.202L106.524 1.97302Z" fill="#E79683"/>
<path d="M323.087 1.30611L323.382 1.97302C329.446 1.86187 327.38 7.75297 327.38 7.75297L314.983 40.6264C314.983 40.6264 303.016 9.92045 301.406 6.08568C299.796 2.25091 303.741 1.94524 303.741 1.94524L304.358 1.27832H302.238H299.689H290.405L290.727 1.91745C292.444 1.91745 294.135 3.30686 295.449 6.36356C295.879 7.39172 297.757 12.1713 300.065 18.0902L291.559 40.6542C291.559 40.6542 279.592 9.94823 277.982 6.11346C276.372 2.27869 280.316 1.97302 280.316 1.97302L280.933 1.30611H266.98L267.302 1.94524C269.02 1.94524 270.71 3.33465 272.025 6.39135C273.34 9.44805 287.588 46.3508 287.588 46.3508H293.839L291.988 41.988L300.548 19.3406C305.109 31.0395 311.012 46.3508 311.012 46.3508H317.264L315.413 41.988L328.668 6.9749C330.036 3.89041 332.505 1.97302 334.356 1.97302L335 1.3339H323.087V1.30611Z" fill="#E79683"/>
<path d="M121.121 1.94528C121.121 1.94528 124.448 1.69519 124.448 5.6689V41.9603C124.448 45.9062 121.121 45.6839 121.121 45.6839V46.323H133.49V45.6839C133.49 45.6839 130.163 45.934 130.163 41.9603V5.6689C130.136 1.69519 133.49 1.94528 133.49 1.94528V1.30615H121.121V1.94528Z" fill="#E79683"/>
<path d="M223.754 42.516C221.312 38.8202 217.234 30.1502 217.234 30.1502C217.234 30.1502 211.84 31.2062 208.594 24.8427H212.162C217.931 24.8427 223.781 20.7023 223.781 12.866C223.781 5.00194 216.375 1.27832 210.499 1.27832H190.696V1.94524C191.555 2.00081 193.675 2.501 193.675 5.66885V41.9602C193.675 45.2114 191.421 45.6283 190.616 45.6838C190.455 45.6838 190.348 45.8228 190.348 45.9895V46.0173C190.348 46.184 190.482 46.323 190.643 46.323H202.422C202.583 46.323 202.717 46.184 202.717 46.0173V45.9895C202.717 45.8228 202.61 45.7116 202.449 45.6838C201.644 45.6283 199.39 45.2392 199.39 41.9602V24.8705H207.896C211.357 31.7342 213.611 35.7357 215.221 39.0425C216.885 42.4604 222.305 46.323 228.718 46.323V45.6838C228.637 45.6838 226.169 46.2118 223.754 42.516ZM199.31 24.1758V5.66885C199.31 4.19608 199.31 2.75109 199.336 1.94524H210.203C213.584 1.94524 217.824 7.03048 217.824 13.2828C217.824 18.3125 214.765 24.148 211.035 24.148C210.096 24.148 208.808 24.148 207.44 24.148C204.435 24.148 200.92 24.1758 199.31 24.1758Z" fill="#E79683"/>
<path d="M18.6215 1.25049H0V1.94519C0 1.94519 3.48819 1.72289 3.48819 5.47429V42.1269C3.48819 45.8783 0 45.656 0 45.656V46.3229C0 46.3229 10.7597 46.2951 18.2727 46.2951C25.7857 46.2951 37.2431 39.487 37.2431 24.4536C37.2431 9.42021 27.7177 1.25049 18.6215 1.25049ZM16.2871 45.6838H8.93512V1.94519H15.9115C20.9828 1.94519 30.857 6.91928 30.857 24.8427C30.857 42.7938 19.3729 45.6838 16.2871 45.6838Z" fill="#E79683"/>
<path d="M159.813 21.7304C152.326 18.6459 144.223 16.3117 143.982 9.86481C143.767 3.39016 149.509 1.83402 151.817 1.83402C154.151 1.83402 163.569 2.50094 167.996 14.0886H168.855L164.374 0H163.435C163.435 0 164.75 2.63988 162.093 2.63988C158.927 2.63988 156.539 0.944798 151.897 0.944798C146.906 0.944798 140.574 4.08486 140.574 12.3935C140.574 27.7882 166.547 24.8148 166.547 37.4307C166.547 45.656 159.866 46.4618 157.478 46.4618C155.09 46.4618 145.645 44.739 139.769 31.7341H138.749L142.747 46.3229H143.606C143.606 46.3229 143.821 44.4333 145.94 44.2944C148.033 44.1554 150.233 47.4622 156.968 47.4622C163.73 47.4622 170.384 42.2658 170.384 35.4299C170.411 28.594 167.299 24.8148 159.813 21.7304Z" fill="#E79683"/>
<path d="M250.21 1.30615C240.041 1.30615 230.623 9.55924 230.623 23.9535C230.623 38.3478 240.926 46.323 250.21 46.323C259.494 46.323 269.503 36.9862 269.503 24.1758C269.503 11.3655 261.319 1.30615 250.21 1.30615ZM250.157 45.6839C243.878 45.6839 236.928 40.682 236.928 23.9535C236.928 8.05868 243.288 1.94528 250.157 1.94528C257.67 1.94528 263.197 10.3651 263.197 24.1758C263.197 39.7928 256.435 45.6839 250.157 45.6839Z" fill="#E79683"/>
</svg>
